<?xml version="1.0" standalone="no"?>
<!DOCTYPE svg PUBLIC "-//W3C//DTD SVG 20010904//EN"
 "http://www.w3.org/TR/2001/REC-SVG-20010904/DTD/svg10.dtd">
<svg version="1.0" xmlns="http://www.w3.org/2000/svg"
 width="1200.000000pt" height="675.000000pt" viewBox="0 0 1200.000000 675.000000"
 preserveAspectRatio="xMidYMid meet">

<g transform="translate(0.000000,675.000000) scale(0.100000,-0.100000)"
fill="#ffffff" stroke="none">
<path d="M6059 6273 c-6 -15 -28 -76 -49 -135 l-39 -108 29 0 c23 0 30 5 35
30 6 29 8 30 66 30 58 0 60 -1 70 -30 8 -22 17 -30 35 -30 13 0 24 6 23 13 0
6 -19 66 -43 132 l-43 120 -37 3 c-32 3 -37 0 -47 -25z m80 -130 c1 -9 -13
-13 -39 -13 -22 0 -40 2 -40 4 0 4 27 82 36 106 4 10 13 -3 24 -35 10 -27 19
-56 19 -62z"/>
<path d="M5665 5308 c-225 -315 -608 -853 -852 -1195 l-443 -622 -100 71 c-96
67 -130 79 -130 44 0 -8 37 -40 83 -72 126 -88 121 -81 91 -119 l-25 -33 -100
70 c-95 67 -129 79 -129 44 0 -8 44 -45 98 -83 53 -38 96 -73 94 -78 -3 -12
-219 -317 -965 -1363 -364 -510 -577 -818 -573 -827 5 -13 401 -15 3373 -13
3205 3 3368 4 3368 21 0 9 -341 496 -758 1081 -418 586 -759 1068 -760 1073 0
4 43 39 96 76 53 38 97 75 97 83 0 35 -34 23 -130 -44 l-100 -71 -20 29 c-11
15 -20 33 -20 38 0 6 43 40 95 77 52 36 95 73 95 81 0 35 -34 23 -129 -44
l-99 -70 -862 1209 c-474 665 -868 1209 -875 1209 -7 0 -196 -258 -420 -572z
m395 -1833 l0 -2295 -934 0 -933 0 -13 112 c-26 235 -95 426 -228 628 -65 98
-219 261 -309 328 -35 25 -59 50 -56 56 4 6 166 235 361 508 238 334 358 495
366 490 7 -4 56 -38 109 -75 93 -66 127 -77 127 -43 0 8 -49 49 -110 91 l-109
77 25 34 c16 21 31 31 38 26 7 -4 56 -38 109 -75 93 -66 127 -77 127 -43 0 8
-49 49 -110 91 l-109 77 40 57 c22 31 392 550 822 1153 430 604 783 1098 785
1098 1 0 2 -1033 2 -2295z m762 1302 c387 -543 742 -1042 790 -1110 47 -67
105 -147 127 -178 l40 -57 -109 -77 c-61 -42 -110 -83 -110 -91 0 -34 34 -23
127 43 53 37 102 71 109 75 7 5 22 -5 38 -26 l25 -34 -109 -77 c-61 -42 -110
-83 -110 -91 0 -34 34 -23 127 43 53 37 102 71 109 76 9 5 121 -145 357 -475
189 -266 346 -488 350 -494 3 -6 -21 -31 -56 -56 -90 -67 -244 -230 -309 -328
-133 -202 -202 -393 -228 -628 l-13 -112 -688 0 -689 0 0 220 0 220 -245 0
-245 0 0 2077 c0 1142 2 2074 5 2072 2 -3 321 -449 707 -992z m-3201 -2576
c184 -139 350 -365 434 -587 44 -116 85 -316 85 -411 l0 -23 -676 0 c-372 0
-674 4 -672 8 7 18 753 1061 759 1062 3 0 35 -22 70 -49z m5379 -478 c206
-290 377 -530 378 -535 2 -4 -300 -8 -672 -8 l-676 0 0 23 c0 48 22 194 41
268 55 222 168 425 329 593 75 79 203 187 219 186 3 0 175 -238 381 -527z
m-2450 -348 l0 -195 -220 0 -220 0 0 195 0 195 220 0 220 0 0 -195z"/>
<path d="M5788 1504 c-37 -20 -58 -63 -58 -119 0 -60 23 -103 65 -121 69 -29
141 -9 170 46 19 38 19 113 -1 151 -27 53 -118 75 -176 43z m113 -43 c20 -16
24 -28 24 -76 0 -48 -4 -60 -24 -76 -13 -10 -33 -19 -46 -19 -13 0 -33 9 -46
19 -20 16 -24 28 -24 76 0 48 4 60 24 76 13 10 33 19 46 19 13 0 33 -9 46 -19z"/>
<path d="M6340 3025 c0 -8 9 -15 20 -15 11 0 20 7 20 15 0 8 -9 15 -20 15 -11
0 -20 -7 -20 -15z"/>
<path d="M7010 3025 c0 -8 9 -15 20 -15 11 0 20 7 20 15 0 8 -9 15 -20 15 -11
0 -20 -7 -20 -15z"/>
<path d="M6242 3018 c-7 -7 -12 -18 -12 -25 0 -7 -4 -13 -10 -13 -5 0 -10 -7
-10 -15 0 -8 5 -15 10 -15 6 0 10 -26 10 -58 0 -65 11 -82 52 -82 32 0 38 19
8 27 -17 5 -20 14 -20 59 0 41 4 54 15 54 8 0 15 7 15 15 0 8 -7 15 -15 15 -9
0 -15 9 -15 25 0 27 -9 32 -28 13z"/>
<path d="M6340 2895 c0 -78 2 -85 20 -85 18 0 20 7 20 85 0 78 -2 85 -20 85
-18 0 -20 -7 -20 -85z"/>
<path d="M6430 2895 c0 -78 2 -85 20 -85 17 0 20 7 21 43 1 63 12 92 36 95 24
4 33 -20 33 -90 0 -41 3 -48 20 -48 18 0 20 7 20 68 0 54 -4 72 -18 85 -21 19
-45 21 -73 7 -13 -7 -19 -7 -19 0 0 5 -9 10 -20 10 -18 0 -20 -7 -20 -85z"/>
<path d="M6639 2961 c-19 -15 -24 -29 -24 -64 0 -71 43 -105 96 -76 18 9 20 8
17 -13 -2 -18 -9 -23 -33 -23 -16 1 -40 4 -52 9 -17 5 -23 4 -23 -8 0 -38 96
-50 130 -16 17 17 20 33 20 115 0 88 -1 95 -20 95 -11 0 -20 -5 -20 -10 0 -7
-6 -7 -19 0 -28 15 -46 13 -72 -9z m83 -36 c17 -38 0 -80 -32 -80 -22 0 -25 5
-28 39 -2 21 -1 44 2 52 9 23 45 16 58 -11z"/>
<path d="M6829 2961 c-19 -15 -24 -29 -24 -64 0 -71 43 -105 96 -76 18 9 20 8
17 -13 -2 -18 -9 -23 -33 -23 -16 1 -40 4 -52 9 -17 5 -23 4 -23 -8 0 -38 96
-50 130 -16 17 17 20 33 20 115 0 88 -1 95 -20 95 -11 0 -20 -5 -20 -10 0 -7
-6 -7 -19 0 -28 15 -46 13 -72 -9z m83 -36 c17 -38 0 -80 -32 -80 -22 0 -25 5
-28 39 -2 21 -1 44 2 52 9 23 45 16 58 -11z"/>
<path d="M7010 2895 c0 -78 2 -85 20 -85 18 0 20 7 20 85 0 78 -2 85 -20 85
-18 0 -20 -7 -20 -85z"/>
<path d="M2990 3995 c0 -8 9 -15 20 -15 11 0 20 7 20 15 0 8 -9 15 -20 15 -11
0 -20 -7 -20 -15z"/>
<path d="M3270 3995 c0 -8 9 -15 20 -15 11 0 20 7 20 15 0 8 -9 15 -20 15 -11
0 -20 -7 -20 -15z"/>
<path d="M3740 3995 c0 -8 9 -15 20 -15 11 0 20 7 20 15 0 8 -9 15 -20 15 -11
0 -20 -7 -20 -15z"/>
<path d="M3970 3995 c0 -8 9 -15 20 -15 11 0 20 7 20 15 0 8 -9 15 -20 15 -11
0 -20 -7 -20 -15z"/>
<path d="M7970 3975 c0 -8 9 -15 20 -15 11 0 20 7 20 15 0 8 -9 15 -20 15 -11
0 -20 -7 -20 -15z"/>
<path d="M8250 3975 c0 -8 9 -15 20 -15 11 0 20 7 20 15 0 8 -9 15 -20 15 -11
0 -20 -7 -20 -15z"/>
<path d="M8720 3975 c0 -8 9 -15 20 -15 11 0 20 7 20 15 0 8 -9 15 -20 15 -11
0 -20 -7 -20 -15z"/>
<path d="M8950 3975 c0 -8 9 -15 20 -15 11 0 20 7 20 15 0 8 -9 15 -20 15 -11
0 -20 -7 -20 -15z"/>
<path d="M2822 3943 c-7 -2 -17 -13 -22 -24 -17 -30 5 -57 55 -70 25 -6 45
-15 45 -21 0 -15 -32 -22 -51 -10 -23 14 -59 16 -59 3 0 -17 44 -41 75 -41 44
0 77 26 73 58 -2 22 -11 30 -51 43 -26 9 -49 20 -50 25 -3 14 43 17 59 3 12
-10 17 -10 27 0 25 26 -54 53 -101 34z"/>
<path d="M2990 3865 c0 -78 2 -85 20 -85 18 0 20 7 20 85 0 78 -2 85 -20 85
-18 0 -20 -7 -20 -85z"/>
<path d="M3102 3943 c-7 -2 -17 -13 -22 -24 -17 -30 5 -57 55 -70 25 -6 45
-15 45 -21 0 -15 -32 -22 -51 -10 -23 14 -59 16 -59 3 0 -17 44 -41 75 -41 44
0 77 26 73 58 -2 22 -11 30 -51 43 -26 9 -49 20 -50 25 -3 14 43 17 59 3 12
-10 17 -10 27 0 25 26 -54 53 -101 34z"/>
<path d="M3270 3865 c0 -78 2 -85 20 -85 18 0 20 7 20 85 0 78 -2 85 -20 85
-18 0 -20 -7 -20 -85z"/>
<path d="M3450 3865 c0 -78 2 -85 20 -85 16 0 19 8 22 61 2 46 8 65 21 73 26
16 37 -7 37 -76 0 -51 2 -58 20 -58 18 0 20 7 20 54 0 67 7 86 31 86 17 0 19
-8 19 -70 0 -68 1 -70 25 -70 24 0 25 2 25 63 0 40 -5 70 -16 85 -15 22 -48
28 -73 13 -7 -5 -25 -4 -42 3 -22 8 -34 7 -49 -2 -12 -7 -20 -8 -20 -2 0 5 -9
10 -20 10 -18 0 -20 -7 -20 -85z"/>
<path d="M3740 3865 c0 -78 2 -85 20 -85 18 0 20 7 20 85 0 78 -2 85 -20 85
-18 0 -20 -7 -20 -85z"/>
<path d="M3830 3865 c0 -84 0 -85 25 -85 23 0 24 3 27 67 3 62 5 68 27 73 14
3 26 11 29 18 5 16 -40 16 -56 0 -9 -9 -12 -9 -12 0 0 7 -9 12 -20 12 -18 0
-20 -7 -20 -85z"/>
<path d="M3970 3865 c0 -78 2 -85 20 -85 18 0 20 7 20 85 0 78 -2 85 -20 85
-18 0 -20 -7 -20 -85z"/>
<path d="M4060 3865 c0 -78 2 -85 20 -85 17 0 20 7 21 43 1 63 12 92 36 95 24
4 33 -20 33 -90 0 -41 3 -48 20 -48 18 0 20 7 20 68 0 54 -4 72 -18 85 -21 19
-45 21 -73 7 -13 -7 -19 -7 -19 0 0 5 -9 10 -20 10 -18 0 -20 -7 -20 -85z"/>
<path d="M4269 3931 c-19 -15 -24 -29 -24 -64 0 -71 43 -105 96 -76 18 9 20 8
17 -13 -2 -18 -9 -23 -33 -23 -16 1 -40 4 -52 9 -17 5 -23 4 -23 -8 0 -38 96
-50 130 -16 17 17 20 33 20 115 0 88 -1 95 -20 95 -11 0 -20 -5 -20 -10 0 -7
-6 -7 -19 0 -28 15 -46 13 -72 -9z m83 -36 c17 -38 0 -80 -32 -80 -22 0 -25 5
-28 39 -2 21 -1 44 2 52 9 23 45 16 58 -11z"/>
<path d="M7802 3923 c-7 -2 -17 -13 -22 -24 -17 -30 5 -57 55 -70 25 -6 45
-15 45 -21 0 -15 -32 -22 -51 -10 -23 14 -59 16 -59 3 0 -17 44 -41 75 -41 44
0 77 26 73 58 -2 22 -11 30 -51 43 -26 9 -49 20 -50 25 -3 14 43 17 59 3 12
-10 17 -10 27 0 25 26 -54 53 -101 34z"/>
<path d="M7970 3845 c0 -78 2 -85 20 -85 18 0 20 7 20 85 0 78 -2 85 -20 85
-18 0 -20 -7 -20 -85z"/>
<path d="M8082 3923 c-7 -2 -17 -13 -22 -24 -17 -30 5 -57 55 -70 25 -6 45
-15 45 -21 0 -15 -32 -22 -51 -10 -23 14 -59 16 -59 3 0 -17 44 -41 75 -41 44
0 77 26 73 58 -2 22 -11 30 -51 43 -26 9 -49 20 -50 25 -3 14 43 17 59 3 12
-10 17 -10 27 0 25 26 -54 53 -101 34z"/>
<path d="M8250 3845 c0 -78 2 -85 20 -85 18 0 20 7 20 85 0 78 -2 85 -20 85
-18 0 -20 -7 -20 -85z"/>
<path d="M8430 3845 c0 -78 2 -85 20 -85 16 0 19 8 22 61 2 46 8 65 21 73 26
16 37 -7 37 -76 0 -51 2 -58 20 -58 18 0 20 7 20 54 0 67 7 86 31 86 17 0 19
-8 19 -70 0 -68 1 -70 25 -70 24 0 25 2 25 63 0 40 -5 70 -16 85 -15 22 -48
28 -73 13 -7 -5 -25 -4 -42 3 -22 8 -34 7 -49 -2 -12 -7 -20 -8 -20 -2 0 5 -9
10 -20 10 -18 0 -20 -7 -20 -85z"/>
<path d="M8720 3845 c0 -78 2 -85 20 -85 18 0 20 7 20 85 0 78 -2 85 -20 85
-18 0 -20 -7 -20 -85z"/>
<path d="M8810 3845 c0 -84 0 -85 25 -85 23 0 24 3 27 67 3 62 5 68 27 73 14
3 26 11 29 18 5 16 -40 16 -56 0 -9 -9 -12 -9 -12 0 0 7 -9 12 -20 12 -18 0
-20 -7 -20 -85z"/>
<path d="M8950 3845 c0 -78 2 -85 20 -85 18 0 20 7 20 85 0 78 -2 85 -20 85
-18 0 -20 -7 -20 -85z"/>
<path d="M9040 3845 c0 -78 2 -85 20 -85 17 0 20 7 21 43 1 63 12 92 36 95 24
4 33 -20 33 -90 0 -41 3 -48 20 -48 18 0 20 7 20 68 0 54 -4 72 -18 85 -21 19
-45 21 -73 7 -13 -7 -19 -7 -19 0 0 5 -9 10 -20 10 -18 0 -20 -7 -20 -85z"/>
<path d="M9249 3911 c-19 -15 -24 -29 -24 -64 0 -71 43 -105 96 -76 18 9 20 8
17 -13 -2 -18 -9 -23 -33 -23 -16 1 -40 4 -52 9 -17 5 -23 4 -23 -8 0 -38 96
-50 130 -16 17 17 20 33 20 115 0 88 -1 95 -20 95 -11 0 -20 -5 -20 -10 0 -7
-6 -7 -19 0 -28 15 -46 13 -72 -9z m83 -36 c17 -38 0 -80 -32 -80 -22 0 -25 5
-28 39 -2 21 -1 44 2 52 9 23 45 16 58 -11z"/>
<path d="M9728 1305 c-15 -9 -35 -29 -43 -45 -19 -37 -19 -113 0 -150 39 -76
169 -79 203 -5 11 23 10 27 -11 34 -16 6 -24 4 -31 -8 -40 -75 -126 -39 -126
54 0 80 65 122 115 75 16 -15 28 -18 45 -12 l22 8 -24 28 c-30 35 -106 46
-150 21z"/>
<path d="M2260 1125 l0 -135 84 0 c69 0 88 4 110 21 32 25 36 77 6 104 -17 16
-18 20 -5 38 22 32 18 63 -11 86 -22 17 -41 21 -105 21 l-79 0 0 -135z m151
79 c22 -26 -1 -49 -55 -52 l-46 -3 0 35 c0 36 0 36 44 36 28 0 48 -6 57 -16z
m13 -116 c19 -31 -4 -53 -63 -56 l-51 -3 0 41 0 41 51 -3 c36 -2 55 -8 63 -20z"/>
<path d="M6040 935 c0 -108 1 -115 20 -115 19 0 20 7 20 115 0 108 -1 115 -20
115 -19 0 -20 -7 -20 -115z"/>
<path d="M5864 975 c-16 -13 -17 -16 -4 -25 19 -13 30 -13 30 0 0 6 12 10 26
10 39 0 27 -32 -15 -41 -45 -9 -65 -31 -57 -63 8 -31 46 -44 82 -27 15 6 24 7
24 1 0 -6 10 -10 23 -10 21 0 22 3 19 67 -3 44 -9 74 -19 86 -20 21 -82 23
-109 2z m74 -97 c-2 -17 -10 -23 -27 -23 -32 0 -39 23 -9 34 35 15 40 13 36
-11z"/>
<path d="M6144 975 c-16 -13 -17 -16 -4 -25 19 -13 30 -13 30 0 0 6 12 10 26
10 39 0 27 -32 -15 -41 -45 -9 -65 -31 -57 -63 8 -31 46 -44 82 -27 15 6 24 7
24 1 0 -6 10 -10 23 -10 21 0 22 3 19 67 -3 44 -9 74 -19 86 -20 21 -82 23
-109 2z m74 -97 c-2 -17 -10 -23 -27 -23 -32 0 -39 23 -9 34 35 15 40 13 36
-11z"/>
<path d="M6332 983 c-7 -2 -17 -13 -22 -24 -17 -30 5 -57 55 -70 25 -6 45 -15
45 -21 0 -15 -32 -22 -51 -10 -23 14 -59 16 -59 3 0 -17 44 -41 75 -41 44 0
77 26 73 58 -2 22 -11 30 -51 43 -26 9 -49 20 -50 25 -3 14 43 17 59 3 12 -10
17 -10 27 0 25 26 -54 53 -101 34z"/>
</g>
</svg>
