<?xml version="1.0" encoding="UTF-8"?>
<svg xmlns="http://www.w3.org/2000/svg" xmlns:xlink="http://www.w3.org/1999/xlink" width="400px" height="225px" viewBox="0 0 399 225" version="1.1">
<g id="surface1">
<path style=" stroke:none;fill-rule:nonzero;fill:rgb(100%,100%,100%);fill-opacity:1;" d="M 201.460938 15.894531 C 201.261719 16.394531 200.53125 18.429688 199.832031 20.394531 L 198.535156 23.992188 L 199.5 23.992188 C 200.265625 23.992188 200.496094 23.828125 200.664062 22.992188 C 200.863281 22.027344 200.929688 21.992188 202.859375 21.992188 C 204.785156 21.992188 204.851562 22.027344 205.1875 22.992188 C 205.453125 23.726562 205.75 23.992188 206.347656 23.992188 C 206.78125 23.992188 207.148438 23.792969 207.113281 23.558594 C 207.113281 23.359375 206.484375 21.359375 205.683594 19.160156 L 204.253906 15.164062 L 203.023438 15.0625 C 201.960938 14.960938 201.792969 15.0625 201.460938 15.894531 Z M 204.121094 20.226562 C 204.15625 20.527344 203.691406 20.660156 202.824219 20.660156 C 202.09375 20.660156 201.496094 20.59375 201.496094 20.527344 C 201.496094 20.394531 202.394531 17.792969 202.691406 16.996094 C 202.824219 16.660156 203.125 17.09375 203.488281 18.160156 C 203.824219 19.0625 204.121094 20.027344 204.121094 20.226562 Z M 204.121094 20.226562 "/>
<path style=" stroke:none;fill-rule:nonzero;fill:rgb(100%,100%,100%);fill-opacity:1;" d="M 188.359375 48.050781 C 180.878906 58.550781 168.144531 76.476562 160.03125 87.875 L 145.300781 108.601562 L 141.976562 106.234375 C 138.785156 104.003906 137.65625 103.601562 137.65625 104.769531 C 137.65625 105.035156 138.886719 106.101562 140.414062 107.167969 C 144.605469 110.101562 144.4375 109.867188 143.441406 111.132812 L 142.609375 112.234375 L 139.285156 109.902344 C 136.125 107.667969 134.996094 107.269531 134.996094 108.433594 C 134.996094 108.699219 136.457031 109.933594 138.253906 111.199219 C 140.015625 112.464844 141.445312 113.632812 141.378906 113.800781 C 141.277344 114.199219 134.097656 124.363281 109.292969 159.21875 C 97.191406 176.214844 90.109375 186.476562 90.242188 186.777344 C 90.40625 187.210938 103.574219 187.277344 202.394531 187.210938 C 308.960938 187.109375 314.378906 187.078125 314.378906 186.511719 C 314.378906 186.210938 303.039062 169.984375 289.175781 150.488281 C 275.277344 130.960938 263.9375 114.898438 263.90625 114.734375 C 263.90625 114.597656 265.335938 113.433594 267.097656 112.199219 C 268.859375 110.933594 270.324219 109.699219 270.324219 109.433594 C 270.324219 108.269531 269.191406 108.667969 266 110.902344 L 262.675781 113.265625 L 262.011719 112.300781 C 261.644531 111.800781 261.34375 111.199219 261.34375 111.035156 C 261.34375 110.832031 262.773438 109.699219 264.503906 108.46875 C 266.234375 107.269531 267.664062 106.035156 267.664062 105.769531 C 267.664062 104.601562 266.53125 105.003906 263.375 107.234375 L 260.082031 109.566406 L 231.421875 69.28125 C 215.660156 47.121094 202.558594 28.992188 202.328125 28.992188 C 202.09375 28.992188 195.808594 37.589844 188.359375 48.050781 Z M 201.496094 109.132812 L 201.496094 185.613281 L 139.417969 185.613281 L 138.984375 181.878906 C 138.121094 174.046875 135.828125 167.683594 131.402344 160.953125 C 129.242188 157.6875 124.121094 152.253906 121.128906 150.023438 C 119.964844 149.1875 119.167969 148.355469 119.269531 148.15625 C 119.402344 147.957031 124.789062 140.324219 131.269531 131.226562 C 139.183594 120.097656 143.175781 114.734375 143.441406 114.898438 C 143.671875 115.03125 145.300781 116.164062 147.066406 117.398438 C 150.15625 119.597656 151.289062 119.964844 151.289062 118.832031 C 151.289062 118.566406 149.660156 117.199219 147.628906 115.800781 L 144.003906 113.234375 L 144.835938 112.101562 C 145.367188 111.398438 145.867188 111.066406 146.101562 111.234375 C 146.332031 111.367188 147.960938 112.5 149.726562 113.734375 C 152.816406 115.933594 153.949219 116.300781 153.949219 115.164062 C 153.949219 114.898438 152.316406 113.53125 150.289062 112.132812 L 146.664062 109.566406 L 147.996094 107.667969 C 148.726562 106.636719 161.03125 89.339844 175.328125 69.246094 C 189.625 49.117188 201.363281 32.65625 201.429688 32.65625 C 201.460938 32.65625 201.496094 67.082031 201.496094 109.132812 Z M 226.832031 65.746094 C 239.699219 83.84375 251.503906 100.46875 253.097656 102.734375 C 254.660156 104.96875 256.589844 107.636719 257.320312 108.667969 L 258.652344 110.566406 L 255.027344 113.132812 C 253 114.53125 251.371094 115.898438 251.371094 116.164062 C 251.371094 117.296875 252.5 116.933594 255.59375 114.734375 C 257.355469 113.5 258.984375 112.367188 259.21875 112.234375 C 259.449219 112.066406 259.949219 112.398438 260.480469 113.101562 L 261.3125 114.234375 L 257.6875 116.796875 C 255.660156 118.199219 254.03125 119.566406 254.03125 119.832031 C 254.03125 120.964844 255.160156 120.597656 258.253906 118.398438 C 260.015625 117.164062 261.644531 116.03125 261.878906 115.867188 C 262.175781 115.699219 265.898438 120.699219 273.746094 131.695312 C 280.03125 140.558594 285.25 147.957031 285.382812 148.15625 C 285.484375 148.355469 284.6875 149.1875 283.523438 150.023438 C 280.53125 152.253906 275.410156 157.6875 273.25 160.953125 C 268.828125 167.683594 266.53125 174.046875 265.667969 181.878906 L 265.234375 185.613281 L 219.449219 185.613281 L 219.449219 170.949219 L 203.15625 170.949219 L 203.15625 101.738281 C 203.15625 63.679688 203.222656 32.625 203.324219 32.691406 C 203.390625 32.789062 213.996094 47.652344 226.832031 65.746094 Z M 120.398438 151.589844 C 126.515625 156.21875 132.035156 163.75 134.828125 171.148438 C 136.292969 175.015625 137.65625 181.679688 137.65625 184.84375 L 137.65625 185.613281 L 115.179688 185.613281 C 102.808594 185.613281 92.765625 185.476562 92.835938 185.34375 C 93.066406 184.746094 117.871094 149.988281 118.070312 149.957031 C 118.171875 149.957031 119.234375 150.6875 120.398438 151.589844 Z M 299.25 167.515625 C 306.097656 177.179688 311.785156 185.179688 311.820312 185.34375 C 311.886719 185.476562 301.84375 185.613281 289.472656 185.613281 L 266.996094 185.613281 L 266.996094 184.84375 C 266.996094 183.246094 267.730469 178.378906 268.359375 175.914062 C 270.191406 168.515625 273.945312 161.753906 279.300781 156.152344 C 281.792969 153.519531 286.050781 149.921875 286.582031 149.957031 C 286.679688 149.957031 292.402344 157.886719 299.25 167.515625 Z M 217.789062 179.113281 L 217.789062 185.613281 L 203.15625 185.613281 L 203.15625 172.617188 L 217.789062 172.617188 Z M 217.789062 179.113281 "/>
<path style=" stroke:none;fill-rule:nonzero;fill:rgb(100%,100%,100%);fill-opacity:1;" d="M 192.449219 174.816406 C 191.222656 175.480469 190.523438 176.914062 190.523438 178.78125 C 190.523438 180.78125 191.289062 182.210938 192.683594 182.8125 C 194.976562 183.777344 197.371094 183.113281 198.335938 181.28125 C 198.96875 180.011719 198.96875 177.515625 198.304688 176.246094 C 197.40625 174.480469 194.378906 173.75 192.449219 174.816406 Z M 196.207031 176.246094 C 196.875 176.78125 197.007812 177.179688 197.007812 178.78125 C 197.007812 180.378906 196.875 180.78125 196.207031 181.3125 C 195.777344 181.644531 195.109375 181.945312 194.679688 181.945312 C 194.246094 181.945312 193.582031 181.644531 193.148438 181.3125 C 192.484375 180.78125 192.351562 180.378906 192.351562 178.78125 C 192.351562 177.179688 192.484375 176.78125 193.148438 176.246094 C 193.582031 175.914062 194.246094 175.613281 194.679688 175.613281 C 195.109375 175.613281 195.777344 175.914062 196.207031 176.246094 Z M 196.207031 176.246094 "/>
<path style=" stroke:none;fill-rule:nonzero;fill:rgb(100%,100%,100%);fill-opacity:1;" d="M 210.804688 124.128906 C 210.804688 124.394531 211.105469 124.628906 211.46875 124.628906 C 211.835938 124.628906 212.136719 124.394531 212.136719 124.128906 C 212.136719 123.863281 211.835938 123.628906 211.46875 123.628906 C 211.105469 123.628906 210.804688 123.863281 210.804688 124.128906 Z M 210.804688 124.128906 "/>
<path style=" stroke:none;fill-rule:nonzero;fill:rgb(100%,100%,100%);fill-opacity:1;" d="M 233.082031 124.128906 C 233.082031 124.394531 233.382812 124.628906 233.746094 124.628906 C 234.113281 124.628906 234.414062 124.394531 234.414062 124.128906 C 234.414062 123.863281 234.113281 123.628906 233.746094 123.628906 C 233.382812 123.628906 233.082031 123.863281 233.082031 124.128906 Z M 233.082031 124.128906 "/>
<path style=" stroke:none;fill-rule:nonzero;fill:rgb(100%,100%,100%);fill-opacity:1;" d="M 207.546875 124.363281 C 207.3125 124.597656 207.148438 124.964844 207.148438 125.195312 C 207.148438 125.429688 207.015625 125.628906 206.816406 125.628906 C 206.648438 125.628906 206.484375 125.863281 206.484375 126.128906 C 206.484375 126.394531 206.648438 126.628906 206.816406 126.628906 C 207.015625 126.628906 207.148438 127.496094 207.148438 128.5625 C 207.148438 130.726562 207.511719 131.292969 208.875 131.292969 C 209.941406 131.292969 210.140625 130.660156 209.140625 130.394531 C 208.578125 130.226562 208.476562 129.929688 208.476562 128.429688 C 208.476562 127.0625 208.609375 126.628906 208.976562 126.628906 C 209.242188 126.628906 209.476562 126.394531 209.476562 126.128906 C 209.476562 125.863281 209.242188 125.628906 208.976562 125.628906 C 208.675781 125.628906 208.476562 125.328125 208.476562 124.796875 C 208.476562 123.898438 208.179688 123.730469 207.546875 124.363281 Z M 207.546875 124.363281 "/>
<path style=" stroke:none;fill-rule:nonzero;fill:rgb(100%,100%,100%);fill-opacity:1;" d="M 210.804688 128.460938 C 210.804688 131.0625 210.871094 131.292969 211.46875 131.292969 C 212.070312 131.292969 212.136719 131.0625 212.136719 128.460938 C 212.136719 125.863281 212.070312 125.628906 211.46875 125.628906 C 210.871094 125.628906 210.804688 125.863281 210.804688 128.460938 Z M 210.804688 128.460938 "/>
<path style=" stroke:none;fill-rule:nonzero;fill:rgb(100%,100%,100%);fill-opacity:1;" d="M 213.796875 128.460938 C 213.796875 131.0625 213.863281 131.292969 214.460938 131.292969 C 215.027344 131.292969 215.128906 131.0625 215.160156 129.863281 C 215.195312 127.761719 215.558594 126.796875 216.359375 126.695312 C 217.15625 126.5625 217.453125 127.363281 217.453125 129.695312 C 217.453125 131.0625 217.554688 131.292969 218.121094 131.292969 C 218.71875 131.292969 218.785156 131.0625 218.785156 129.027344 C 218.785156 127.230469 218.652344 126.628906 218.1875 126.195312 C 217.488281 125.5625 216.691406 125.496094 215.757812 125.960938 C 215.328125 126.195312 215.128906 126.195312 215.128906 125.960938 C 215.128906 125.796875 214.828125 125.628906 214.460938 125.628906 C 213.863281 125.628906 213.796875 125.863281 213.796875 128.460938 Z M 213.796875 128.460938 "/>
<path style=" stroke:none;fill-rule:nonzero;fill:rgb(100%,100%,100%);fill-opacity:1;" d="M 220.746094 126.261719 C 220.113281 126.761719 219.949219 127.230469 219.949219 128.394531 C 219.949219 130.761719 221.378906 131.894531 223.140625 130.929688 C 223.738281 130.628906 223.804688 130.660156 223.707031 131.359375 C 223.640625 131.960938 223.40625 132.128906 222.609375 132.128906 C 222.078125 132.09375 221.277344 131.996094 220.878906 131.828125 C 220.316406 131.660156 220.113281 131.695312 220.113281 132.09375 C 220.113281 133.359375 223.308594 133.761719 224.4375 132.628906 C 225.003906 132.0625 225.101562 131.527344 225.101562 128.796875 C 225.101562 125.863281 225.070312 125.628906 224.4375 125.628906 C 224.070312 125.628906 223.773438 125.796875 223.773438 125.960938 C 223.773438 126.195312 223.574219 126.195312 223.140625 125.960938 C 222.210938 125.460938 221.609375 125.53125 220.746094 126.261719 Z M 223.507812 127.460938 C 224.070312 128.730469 223.507812 130.128906 222.441406 130.128906 C 221.710938 130.128906 221.609375 129.960938 221.511719 128.828125 C 221.445312 128.128906 221.476562 127.363281 221.578125 127.09375 C 221.878906 126.328125 223.074219 126.5625 223.507812 127.460938 Z M 223.507812 127.460938 "/>
<path style=" stroke:none;fill-rule:nonzero;fill:rgb(100%,100%,100%);fill-opacity:1;" d="M 227.0625 126.261719 C 226.433594 126.761719 226.265625 127.230469 226.265625 128.394531 C 226.265625 130.761719 227.695312 131.894531 229.457031 130.929688 C 230.058594 130.628906 230.125 130.660156 230.023438 131.359375 C 229.957031 131.960938 229.722656 132.128906 228.925781 132.128906 C 228.394531 132.09375 227.597656 131.996094 227.195312 131.828125 C 226.632812 131.660156 226.433594 131.695312 226.433594 132.09375 C 226.433594 133.359375 229.625 133.761719 230.753906 132.628906 C 231.320312 132.0625 231.421875 131.527344 231.421875 128.796875 C 231.421875 125.863281 231.386719 125.628906 230.753906 125.628906 C 230.390625 125.628906 230.089844 125.796875 230.089844 125.960938 C 230.089844 126.195312 229.890625 126.195312 229.457031 125.960938 C 228.527344 125.460938 227.929688 125.53125 227.0625 126.261719 Z M 229.824219 127.460938 C 230.390625 128.730469 229.824219 130.128906 228.761719 130.128906 C 228.027344 130.128906 227.929688 129.960938 227.828125 128.828125 C 227.761719 128.128906 227.796875 127.363281 227.894531 127.09375 C 228.195312 126.328125 229.390625 126.5625 229.824219 127.460938 Z M 229.824219 127.460938 "/>
<path style=" stroke:none;fill-rule:nonzero;fill:rgb(100%,100%,100%);fill-opacity:1;" d="M 233.082031 128.460938 C 233.082031 131.0625 233.148438 131.292969 233.746094 131.292969 C 234.347656 131.292969 234.414062 131.0625 234.414062 128.460938 C 234.414062 125.863281 234.347656 125.628906 233.746094 125.628906 C 233.148438 125.628906 233.082031 125.863281 233.082031 128.460938 Z M 233.082031 128.460938 "/>
<path style=" stroke:none;fill-rule:nonzero;fill:rgb(100%,100%,100%);fill-opacity:1;" d="M 99.417969 91.804688 C 99.417969 92.074219 99.714844 92.304688 100.082031 92.304688 C 100.449219 92.304688 100.746094 92.074219 100.746094 91.804688 C 100.746094 91.539062 100.449219 91.304688 100.082031 91.304688 C 99.714844 91.304688 99.417969 91.539062 99.417969 91.804688 Z M 99.417969 91.804688 "/>
<path style=" stroke:none;fill-rule:nonzero;fill:rgb(100%,100%,100%);fill-opacity:1;" d="M 108.726562 91.804688 C 108.726562 92.074219 109.027344 92.304688 109.390625 92.304688 C 109.757812 92.304688 110.058594 92.074219 110.058594 91.804688 C 110.058594 91.539062 109.757812 91.304688 109.390625 91.304688 C 109.027344 91.304688 108.726562 91.539062 108.726562 91.804688 Z M 108.726562 91.804688 "/>
<path style=" stroke:none;fill-rule:nonzero;fill:rgb(100%,100%,100%);fill-opacity:1;" d="M 124.355469 91.804688 C 124.355469 92.074219 124.652344 92.304688 125.019531 92.304688 C 125.386719 92.304688 125.683594 92.074219 125.683594 91.804688 C 125.683594 91.539062 125.386719 91.304688 125.019531 91.304688 C 124.652344 91.304688 124.355469 91.539062 124.355469 91.804688 Z M 124.355469 91.804688 "/>
<path style=" stroke:none;fill-rule:nonzero;fill:rgb(100%,100%,100%);fill-opacity:1;" d="M 132.003906 91.804688 C 132.003906 92.074219 132.300781 92.304688 132.667969 92.304688 C 133.035156 92.304688 133.332031 92.074219 133.332031 91.804688 C 133.332031 91.539062 133.035156 91.304688 132.667969 91.304688 C 132.300781 91.304688 132.003906 91.539062 132.003906 91.804688 Z M 132.003906 91.804688 "/>
<path style=" stroke:none;fill-rule:nonzero;fill:rgb(100%,100%,100%);fill-opacity:1;" d="M 265.003906 92.472656 C 265.003906 92.738281 265.300781 92.972656 265.667969 92.972656 C 266.035156 92.972656 266.332031 92.738281 266.332031 92.472656 C 266.332031 92.207031 266.035156 91.972656 265.667969 91.972656 C 265.300781 91.972656 265.003906 92.207031 265.003906 92.472656 Z M 265.003906 92.472656 "/>
<path style=" stroke:none;fill-rule:nonzero;fill:rgb(100%,100%,100%);fill-opacity:1;" d="M 274.3125 92.472656 C 274.3125 92.738281 274.613281 92.972656 274.976562 92.972656 C 275.34375 92.972656 275.640625 92.738281 275.640625 92.472656 C 275.640625 92.207031 275.34375 91.972656 274.976562 91.972656 C 274.613281 91.972656 274.3125 92.207031 274.3125 92.472656 Z M 274.3125 92.472656 "/>
<path style=" stroke:none;fill-rule:nonzero;fill:rgb(100%,100%,100%);fill-opacity:1;" d="M 289.941406 92.472656 C 289.941406 92.738281 290.238281 92.972656 290.605469 92.972656 C 290.972656 92.972656 291.269531 92.738281 291.269531 92.472656 C 291.269531 92.207031 290.972656 91.972656 290.605469 91.972656 C 290.238281 91.972656 289.941406 92.207031 289.941406 92.472656 Z M 289.941406 92.472656 "/>
<path style=" stroke:none;fill-rule:nonzero;fill:rgb(100%,100%,100%);fill-opacity:1;" d="M 297.585938 92.472656 C 297.585938 92.738281 297.886719 92.972656 298.253906 92.972656 C 298.617188 92.972656 298.917969 92.738281 298.917969 92.472656 C 298.917969 92.207031 298.617188 91.972656 298.253906 91.972656 C 297.886719 91.972656 297.585938 92.207031 297.585938 92.472656 Z M 297.585938 92.472656 "/>
<path style=" stroke:none;fill-rule:nonzero;fill:rgb(100%,100%,100%);fill-opacity:1;" d="M 93.832031 93.539062 C 93.597656 93.605469 93.265625 93.972656 93.101562 94.339844 C 92.535156 95.339844 93.265625 96.238281 94.929688 96.671875 C 95.761719 96.871094 96.425781 97.171875 96.425781 97.371094 C 96.425781 97.871094 95.359375 98.105469 94.730469 97.703125 C 93.964844 97.238281 92.765625 97.171875 92.765625 97.605469 C 92.765625 98.171875 94.230469 98.96875 95.261719 98.96875 C 96.722656 98.96875 97.820312 98.105469 97.6875 97.039062 C 97.621094 96.304688 97.324219 96.039062 95.992188 95.605469 C 95.128906 95.304688 94.363281 94.9375 94.332031 94.773438 C 94.230469 94.304688 95.761719 94.207031 96.292969 94.671875 C 96.691406 95.003906 96.855469 95.003906 97.191406 94.671875 C 98.019531 93.804688 95.394531 92.90625 93.832031 93.539062 Z M 93.832031 93.539062 "/>
<path style=" stroke:none;fill-rule:nonzero;fill:rgb(100%,100%,100%);fill-opacity:1;" d="M 99.417969 96.136719 C 99.417969 98.738281 99.484375 98.96875 100.082031 98.96875 C 100.679688 98.96875 100.746094 98.738281 100.746094 96.136719 C 100.746094 93.539062 100.679688 93.304688 100.082031 93.304688 C 99.484375 93.304688 99.417969 93.539062 99.417969 96.136719 Z M 99.417969 96.136719 "/>
<path style=" stroke:none;fill-rule:nonzero;fill:rgb(100%,100%,100%);fill-opacity:1;" d="M 103.140625 93.539062 C 102.910156 93.605469 102.578125 93.972656 102.410156 94.339844 C 101.84375 95.339844 102.578125 96.238281 104.238281 96.671875 C 105.070312 96.871094 105.734375 97.171875 105.734375 97.371094 C 105.734375 97.871094 104.671875 98.105469 104.039062 97.703125 C 103.273438 97.238281 102.078125 97.171875 102.078125 97.605469 C 102.078125 98.171875 103.539062 98.96875 104.570312 98.96875 C 106.035156 98.96875 107.132812 98.105469 107 97.039062 C 106.933594 96.304688 106.632812 96.039062 105.304688 95.605469 C 104.4375 95.304688 103.671875 94.9375 103.640625 94.773438 C 103.539062 94.304688 105.070312 94.207031 105.601562 94.671875 C 106 95.003906 106.167969 95.003906 106.5 94.671875 C 107.332031 93.804688 104.703125 92.90625 103.140625 93.539062 Z M 103.140625 93.539062 "/>
<path style=" stroke:none;fill-rule:nonzero;fill:rgb(100%,100%,100%);fill-opacity:1;" d="M 108.726562 96.136719 C 108.726562 98.738281 108.792969 98.96875 109.390625 98.96875 C 109.992188 98.96875 110.058594 98.738281 110.058594 96.136719 C 110.058594 93.539062 109.992188 93.304688 109.390625 93.304688 C 108.792969 93.304688 108.726562 93.539062 108.726562 96.136719 Z M 108.726562 96.136719 "/>
<path style=" stroke:none;fill-rule:nonzero;fill:rgb(100%,100%,100%);fill-opacity:1;" d="M 114.710938 96.136719 C 114.710938 98.738281 114.777344 98.96875 115.378906 98.96875 C 115.910156 98.96875 116.007812 98.703125 116.109375 96.9375 C 116.175781 95.40625 116.375 94.773438 116.808594 94.503906 C 117.671875 93.972656 118.039062 94.738281 118.039062 97.039062 C 118.039062 98.738281 118.105469 98.96875 118.703125 98.96875 C 119.300781 98.96875 119.367188 98.738281 119.367188 97.171875 C 119.367188 94.9375 119.601562 94.304688 120.398438 94.304688 C 120.964844 94.304688 121.03125 94.570312 121.03125 96.636719 C 121.03125 98.902344 121.0625 98.96875 121.859375 98.96875 C 122.660156 98.96875 122.691406 98.902344 122.691406 96.871094 C 122.691406 95.539062 122.527344 94.539062 122.160156 94.039062 C 121.660156 93.304688 120.566406 93.105469 119.734375 93.605469 C 119.5 93.773438 118.902344 93.738281 118.335938 93.503906 C 117.605469 93.238281 117.207031 93.273438 116.707031 93.574219 C 116.308594 93.804688 116.042969 93.839844 116.042969 93.640625 C 116.042969 93.472656 115.742188 93.304688 115.378906 93.304688 C 114.777344 93.304688 114.710938 93.539062 114.710938 96.136719 Z M 114.710938 96.136719 "/>
<path style=" stroke:none;fill-rule:nonzero;fill:rgb(100%,100%,100%);fill-opacity:1;" d="M 124.355469 96.136719 C 124.355469 98.738281 124.421875 98.96875 125.019531 98.96875 C 125.617188 98.96875 125.683594 98.738281 125.683594 96.136719 C 125.683594 93.539062 125.617188 93.304688 125.019531 93.304688 C 124.421875 93.304688 124.355469 93.539062 124.355469 96.136719 Z M 124.355469 96.136719 "/>
<path style=" stroke:none;fill-rule:nonzero;fill:rgb(100%,100%,100%);fill-opacity:1;" d="M 127.347656 96.136719 C 127.347656 98.9375 127.347656 98.96875 128.179688 98.96875 C 128.945312 98.96875 128.976562 98.871094 129.078125 96.738281 C 129.175781 94.671875 129.242188 94.472656 129.972656 94.304688 C 130.441406 94.207031 130.839844 93.9375 130.9375 93.707031 C 131.105469 93.171875 129.609375 93.171875 129.078125 93.707031 C 128.777344 94.003906 128.675781 94.003906 128.675781 93.707031 C 128.675781 93.472656 128.378906 93.304688 128.011719 93.304688 C 127.414062 93.304688 127.347656 93.539062 127.347656 96.136719 Z M 127.347656 96.136719 "/>
<path style=" stroke:none;fill-rule:nonzero;fill:rgb(100%,100%,100%);fill-opacity:1;" d="M 132.003906 96.136719 C 132.003906 98.738281 132.070312 98.96875 132.667969 98.96875 C 133.265625 98.96875 133.332031 98.738281 133.332031 96.136719 C 133.332031 93.539062 133.265625 93.304688 132.667969 93.304688 C 132.070312 93.304688 132.003906 93.539062 132.003906 96.136719 Z M 132.003906 96.136719 "/>
<path style=" stroke:none;fill-rule:nonzero;fill:rgb(100%,100%,100%);fill-opacity:1;" d="M 134.996094 96.136719 C 134.996094 98.738281 135.0625 98.96875 135.660156 98.96875 C 136.226562 98.96875 136.324219 98.738281 136.359375 97.539062 C 136.390625 95.4375 136.757812 94.472656 137.554688 94.371094 C 138.351562 94.238281 138.652344 95.039062 138.652344 97.371094 C 138.652344 98.738281 138.753906 98.96875 139.316406 98.96875 C 139.914062 98.96875 139.984375 98.738281 139.984375 96.703125 C 139.984375 94.90625 139.847656 94.304688 139.382812 93.871094 C 138.6875 93.238281 137.886719 93.171875 136.957031 93.640625 C 136.523438 93.871094 136.324219 93.871094 136.324219 93.640625 C 136.324219 93.472656 136.027344 93.304688 135.660156 93.304688 C 135.0625 93.304688 134.996094 93.539062 134.996094 96.136719 Z M 134.996094 96.136719 "/>
<path style=" stroke:none;fill-rule:nonzero;fill:rgb(100%,100%,100%);fill-opacity:1;" d="M 141.945312 93.9375 C 141.3125 94.4375 141.144531 94.90625 141.144531 96.070312 C 141.144531 98.4375 142.574219 99.570312 144.339844 98.605469 C 144.9375 98.304688 145.003906 98.335938 144.902344 99.039062 C 144.835938 99.636719 144.605469 99.804688 143.804688 99.804688 C 143.273438 99.769531 142.476562 99.671875 142.078125 99.503906 C 141.511719 99.335938 141.3125 99.371094 141.3125 99.769531 C 141.3125 101.035156 144.503906 101.4375 145.636719 100.304688 C 146.199219 99.738281 146.300781 99.203125 146.300781 96.472656 C 146.300781 93.539062 146.265625 93.304688 145.636719 93.304688 C 145.269531 93.304688 144.96875 93.472656 144.96875 93.640625 C 144.96875 93.871094 144.769531 93.871094 144.339844 93.640625 C 143.40625 93.140625 142.808594 93.207031 141.945312 93.9375 Z M 144.703125 95.136719 C 145.269531 96.40625 144.703125 97.804688 143.640625 97.804688 C 142.910156 97.804688 142.808594 97.636719 142.710938 96.503906 C 142.640625 95.804688 142.675781 95.039062 142.777344 94.773438 C 143.074219 94.003906 144.273438 94.238281 144.703125 95.136719 Z M 144.703125 95.136719 "/>
<path style=" stroke:none;fill-rule:nonzero;fill:rgb(100%,100%,100%);fill-opacity:1;" d="M 259.417969 94.207031 C 259.183594 94.273438 258.851562 94.636719 258.683594 95.003906 C 258.121094 96.003906 258.851562 96.90625 260.515625 97.335938 C 261.34375 97.539062 262.011719 97.835938 262.011719 98.039062 C 262.011719 98.539062 260.945312 98.769531 260.3125 98.371094 C 259.550781 97.90625 258.351562 97.835938 258.351562 98.269531 C 258.351562 98.835938 259.816406 99.636719 260.847656 99.636719 C 262.308594 99.636719 263.40625 98.769531 263.273438 97.703125 C 263.207031 96.972656 262.90625 96.703125 261.578125 96.269531 C 260.714844 95.972656 259.949219 95.605469 259.914062 95.4375 C 259.816406 94.972656 261.34375 94.871094 261.878906 95.339844 C 262.277344 95.671875 262.441406 95.671875 262.773438 95.339844 C 263.605469 94.472656 260.980469 93.574219 259.417969 94.207031 Z M 259.417969 94.207031 "/>
<path style=" stroke:none;fill-rule:nonzero;fill:rgb(100%,100%,100%);fill-opacity:1;" d="M 265.003906 96.804688 C 265.003906 99.402344 265.070312 99.636719 265.667969 99.636719 C 266.265625 99.636719 266.332031 99.402344 266.332031 96.804688 C 266.332031 94.207031 266.265625 93.972656 265.667969 93.972656 C 265.070312 93.972656 265.003906 94.207031 265.003906 96.804688 Z M 265.003906 96.804688 "/>
<path style=" stroke:none;fill-rule:nonzero;fill:rgb(100%,100%,100%);fill-opacity:1;" d="M 268.726562 94.207031 C 268.492188 94.273438 268.160156 94.636719 267.996094 95.003906 C 267.429688 96.003906 268.160156 96.90625 269.824219 97.335938 C 270.65625 97.539062 271.320312 97.835938 271.320312 98.039062 C 271.320312 98.539062 270.257812 98.769531 269.625 98.371094 C 268.859375 97.90625 267.664062 97.835938 267.664062 98.269531 C 267.664062 98.835938 269.125 99.636719 270.15625 99.636719 C 271.621094 99.636719 272.714844 98.769531 272.582031 97.703125 C 272.515625 96.972656 272.21875 96.703125 270.886719 96.269531 C 270.023438 95.972656 269.257812 95.605469 269.226562 95.4375 C 269.125 94.972656 270.65625 94.871094 271.1875 95.339844 C 271.585938 95.671875 271.753906 95.671875 272.085938 95.339844 C 272.914062 94.472656 270.289062 93.574219 268.726562 94.207031 Z M 268.726562 94.207031 "/>
<path style=" stroke:none;fill-rule:nonzero;fill:rgb(100%,100%,100%);fill-opacity:1;" d="M 274.3125 96.804688 C 274.3125 99.402344 274.378906 99.636719 274.976562 99.636719 C 275.574219 99.636719 275.640625 99.402344 275.640625 96.804688 C 275.640625 94.207031 275.574219 93.972656 274.976562 93.972656 C 274.378906 93.972656 274.3125 94.207031 274.3125 96.804688 Z M 274.3125 96.804688 "/>
<path style=" stroke:none;fill-rule:nonzero;fill:rgb(100%,100%,100%);fill-opacity:1;" d="M 280.296875 96.804688 C 280.296875 99.402344 280.363281 99.636719 280.960938 99.636719 C 281.496094 99.636719 281.59375 99.371094 281.695312 97.605469 C 281.761719 96.070312 281.960938 95.4375 282.390625 95.171875 C 283.257812 94.636719 283.621094 95.40625 283.621094 97.703125 C 283.621094 99.402344 283.6875 99.636719 284.289062 99.636719 C 284.886719 99.636719 284.953125 99.402344 284.953125 97.835938 C 284.953125 95.605469 285.183594 94.972656 285.984375 94.972656 C 286.546875 94.972656 286.613281 95.238281 286.613281 97.304688 C 286.613281 99.570312 286.648438 99.636719 287.445312 99.636719 C 288.246094 99.636719 288.277344 99.570312 288.277344 97.539062 C 288.277344 96.203125 288.109375 95.207031 287.746094 94.707031 C 287.246094 93.972656 286.148438 93.773438 285.316406 94.273438 C 285.085938 94.4375 284.488281 94.40625 283.921875 94.171875 C 283.191406 93.90625 282.792969 93.9375 282.292969 94.238281 C 281.894531 94.472656 281.628906 94.503906 281.628906 94.304688 C 281.628906 94.140625 281.328125 93.972656 280.960938 93.972656 C 280.363281 93.972656 280.296875 94.207031 280.296875 96.804688 Z M 280.296875 96.804688 "/>
<path style=" stroke:none;fill-rule:nonzero;fill:rgb(100%,100%,100%);fill-opacity:1;" d="M 289.941406 96.804688 C 289.941406 99.402344 290.007812 99.636719 290.605469 99.636719 C 291.203125 99.636719 291.269531 99.402344 291.269531 96.804688 C 291.269531 94.207031 291.203125 93.972656 290.605469 93.972656 C 290.007812 93.972656 289.941406 94.207031 289.941406 96.804688 Z M 289.941406 96.804688 "/>
<path style=" stroke:none;fill-rule:nonzero;fill:rgb(100%,100%,100%);fill-opacity:1;" d="M 292.933594 96.804688 C 292.933594 99.605469 292.933594 99.636719 293.765625 99.636719 C 294.527344 99.636719 294.5625 99.539062 294.660156 97.40625 C 294.761719 95.339844 294.828125 95.136719 295.558594 94.972656 C 296.023438 94.871094 296.421875 94.605469 296.523438 94.371094 C 296.691406 93.839844 295.195312 93.839844 294.660156 94.371094 C 294.363281 94.671875 294.261719 94.671875 294.261719 94.371094 C 294.261719 94.140625 293.964844 93.972656 293.597656 93.972656 C 293 93.972656 292.933594 94.207031 292.933594 96.804688 Z M 292.933594 96.804688 "/>
<path style=" stroke:none;fill-rule:nonzero;fill:rgb(100%,100%,100%);fill-opacity:1;" d="M 297.585938 96.804688 C 297.585938 99.402344 297.652344 99.636719 298.253906 99.636719 C 298.851562 99.636719 298.917969 99.402344 298.917969 96.804688 C 298.917969 94.207031 298.851562 93.972656 298.253906 93.972656 C 297.652344 93.972656 297.585938 94.207031 297.585938 96.804688 Z M 297.585938 96.804688 "/>
<path style=" stroke:none;fill-rule:nonzero;fill:rgb(100%,100%,100%);fill-opacity:1;" d="M 300.578125 96.804688 C 300.578125 99.402344 300.648438 99.636719 301.246094 99.636719 C 301.808594 99.636719 301.910156 99.402344 301.941406 98.203125 C 301.976562 96.105469 302.34375 95.136719 303.140625 95.039062 C 303.9375 94.90625 304.238281 95.703125 304.238281 98.039062 C 304.238281 99.402344 304.335938 99.636719 304.902344 99.636719 C 305.5 99.636719 305.566406 99.402344 305.566406 97.371094 C 305.566406 95.570312 305.433594 94.972656 304.96875 94.539062 C 304.269531 93.90625 303.472656 93.839844 302.542969 94.304688 C 302.109375 94.539062 301.910156 94.539062 301.910156 94.304688 C 301.910156 94.140625 301.609375 93.972656 301.246094 93.972656 C 300.648438 93.972656 300.578125 94.207031 300.578125 96.804688 Z M 300.578125 96.804688 "/>
<path style=" stroke:none;fill-rule:nonzero;fill:rgb(100%,100%,100%);fill-opacity:1;" d="M 307.527344 94.605469 C 306.898438 95.105469 306.730469 95.570312 306.730469 96.738281 C 306.730469 99.105469 308.160156 100.238281 309.921875 99.269531 C 310.523438 98.96875 310.589844 99.003906 310.488281 99.703125 C 310.421875 100.304688 310.1875 100.46875 309.390625 100.46875 C 308.859375 100.4375 308.0625 100.335938 307.664062 100.171875 C 307.097656 100.003906 306.898438 100.035156 306.898438 100.4375 C 306.898438 101.703125 310.089844 102.101562 311.21875 100.96875 C 311.785156 100.402344 311.886719 99.871094 311.886719 97.136719 C 311.886719 94.207031 311.851562 93.972656 311.21875 93.972656 C 310.855469 93.972656 310.554688 94.140625 310.554688 94.304688 C 310.554688 94.539062 310.355469 94.539062 309.921875 94.304688 C 308.992188 93.804688 308.394531 93.871094 307.527344 94.605469 Z M 310.289062 95.804688 C 310.855469 97.070312 310.289062 98.472656 309.226562 98.472656 C 308.492188 98.472656 308.394531 98.304688 308.292969 97.171875 C 308.226562 96.472656 308.261719 95.703125 308.359375 95.4375 C 308.660156 94.671875 309.855469 94.90625 310.289062 95.804688 Z M 310.289062 95.804688 "/>
<path style=" stroke:none;fill-rule:nonzero;fill:rgb(100%,100%,100%);fill-opacity:1;" d="M 323.457031 181.445312 C 322.957031 181.746094 322.292969 182.414062 322.027344 182.945312 C 321.394531 184.179688 321.394531 186.710938 322.027344 187.945312 C 323.324219 190.476562 327.644531 190.578125 328.777344 188.109375 C 329.140625 187.34375 329.109375 187.210938 328.410156 186.976562 C 327.878906 186.777344 327.613281 186.84375 327.378906 187.246094 C 326.050781 189.742188 323.191406 188.542969 323.191406 185.445312 C 323.191406 182.777344 325.351562 181.378906 327.015625 182.945312 C 327.546875 183.445312 327.945312 183.546875 328.511719 183.34375 L 329.242188 183.078125 L 328.445312 182.144531 C 327.445312 180.980469 324.917969 180.613281 323.457031 181.445312 Z M 323.457031 181.445312 "/>
<path style=" stroke:none;fill-rule:nonzero;fill:rgb(100%,100%,100%);fill-opacity:1;" d="M 75.144531 187.445312 L 75.144531 191.941406 L 77.9375 191.941406 C 80.230469 191.941406 80.863281 191.808594 81.59375 191.242188 C 82.660156 190.410156 82.792969 188.675781 81.796875 187.777344 C 81.230469 187.246094 81.195312 187.109375 81.628906 186.511719 C 82.359375 185.445312 82.226562 184.410156 81.261719 183.644531 C 80.53125 183.078125 79.898438 182.945312 77.773438 182.945312 L 75.144531 182.945312 Z M 80.164062 184.8125 C 80.898438 185.679688 80.132812 186.445312 78.335938 186.542969 L 76.808594 186.644531 L 76.808594 185.476562 C 76.808594 184.277344 76.808594 184.277344 78.269531 184.277344 C 79.203125 184.277344 79.867188 184.480469 80.164062 184.8125 Z M 80.597656 188.675781 C 81.230469 189.710938 80.464844 190.445312 78.503906 190.542969 L 76.808594 190.644531 L 76.808594 187.910156 L 78.503906 188.011719 C 79.699219 188.078125 80.332031 188.277344 80.597656 188.675781 Z M 80.597656 188.675781 "/>
<path style=" stroke:none;fill-rule:nonzero;fill:rgb(100%,100%,100%);fill-opacity:1;" d="M 200.828125 193.777344 C 200.828125 197.375 200.863281 197.609375 201.496094 197.609375 C 202.125 197.609375 202.160156 197.375 202.160156 193.777344 C 202.160156 190.175781 202.125 189.945312 201.496094 189.945312 C 200.863281 189.945312 200.828125 190.175781 200.828125 193.777344 Z M 200.828125 193.777344 "/>
<path style=" stroke:none;fill-rule:nonzero;fill:rgb(100%,100%,100%);fill-opacity:1;" d="M 194.976562 192.441406 C 194.445312 192.875 194.414062 192.976562 194.84375 193.277344 C 195.476562 193.710938 195.84375 193.710938 195.84375 193.277344 C 195.84375 193.074219 196.242188 192.941406 196.707031 192.941406 C 198.003906 192.941406 197.605469 194.007812 196.207031 194.308594 C 194.710938 194.609375 194.046875 195.34375 194.3125 196.410156 C 194.578125 197.441406 195.84375 197.875 197.039062 197.308594 C 197.539062 197.109375 197.835938 197.074219 197.835938 197.273438 C 197.835938 197.476562 198.171875 197.609375 198.601562 197.609375 C 199.300781 197.609375 199.332031 197.507812 199.234375 195.375 C 199.132812 193.910156 198.933594 192.910156 198.601562 192.507812 C 197.9375 191.808594 195.875 191.742188 194.976562 192.441406 Z M 197.4375 195.675781 C 197.371094 196.242188 197.105469 196.441406 196.539062 196.441406 C 195.476562 196.441406 195.242188 195.675781 196.242188 195.308594 C 197.40625 194.808594 197.570312 194.875 197.4375 195.675781 Z M 197.4375 195.675781 "/>
<path style=" stroke:none;fill-rule:nonzero;fill:rgb(100%,100%,100%);fill-opacity:1;" d="M 204.289062 192.441406 C 203.757812 192.875 203.722656 192.976562 204.15625 193.277344 C 204.785156 193.710938 205.152344 193.710938 205.152344 193.277344 C 205.152344 193.074219 205.550781 192.941406 206.015625 192.941406 C 207.3125 192.941406 206.914062 194.007812 205.519531 194.308594 C 204.023438 194.609375 203.355469 195.34375 203.621094 196.410156 C 203.890625 197.441406 205.152344 197.875 206.347656 197.308594 C 206.847656 197.109375 207.148438 197.074219 207.148438 197.273438 C 207.148438 197.476562 207.480469 197.609375 207.914062 197.609375 C 208.609375 197.609375 208.644531 197.507812 208.542969 195.375 C 208.445312 193.910156 208.246094 192.910156 207.914062 192.507812 C 207.246094 191.808594 205.1875 191.742188 204.289062 192.441406 Z M 206.75 195.675781 C 206.683594 196.242188 206.414062 196.441406 205.851562 196.441406 C 204.785156 196.441406 204.554688 195.675781 205.550781 195.308594 C 206.714844 194.808594 206.882812 194.875 206.75 195.675781 Z M 206.75 195.675781 "/>
<path style=" stroke:none;fill-rule:nonzero;fill:rgb(100%,100%,100%);fill-opacity:1;" d="M 210.539062 192.175781 C 210.304688 192.242188 209.972656 192.609375 209.808594 192.976562 C 209.242188 193.976562 209.972656 194.875 211.636719 195.308594 C 212.46875 195.507812 213.132812 195.808594 213.132812 196.007812 C 213.132812 196.507812 212.070312 196.742188 211.4375 196.34375 C 210.671875 195.875 209.476562 195.808594 209.476562 196.242188 C 209.476562 196.808594 210.9375 197.609375 211.96875 197.609375 C 213.433594 197.609375 214.527344 196.742188 214.394531 195.675781 C 214.328125 194.941406 214.03125 194.675781 212.699219 194.242188 C 211.835938 193.941406 211.070312 193.574219 211.039062 193.410156 C 210.9375 192.941406 212.46875 192.84375 213 193.308594 C 213.398438 193.644531 213.566406 193.644531 213.898438 193.308594 C 214.726562 192.441406 212.101562 191.542969 210.539062 192.175781 Z M 210.539062 192.175781 "/>
</g>
</svg>
